<?xml version="1.0" encoding="UTF-8"?>
<svg xmlns="http://www.w3.org/2000/svg" viewBox="0 0 1024 1024">
  <defs>
    <style>
      .cls-1 {
        fill: #fcfcfc;
      }

      .cls-2 {
        fill: #fff;
      }
    </style>
  </defs>
  <g id="Border">
    <circle cx="512" cy="512" r="512"/>
    <circle class="cls-2" cx="512.5" cy="512.5" r="502.5"/>
  </g>
  <g id="Text">
    <path d="M123,734.76v-398.53h162.26c42.5,0,79.8,8.45,111.87,25.34,32.07,16.89,57.02,40.33,74.87,70.31,17.83,29.99,26.76,64.53,26.76,103.62s-8.92,73.64-26.76,103.62c-17.85,29.99-42.8,53.43-74.87,70.31-32.08,16.9-69.37,25.34-111.87,25.34H123Z"/>
    <polygon points="906.58 336.81 887.46 336.81 581.17 336.81 559.77 336.81 535.62 336.81 712.11 735.33 753.67 735.33 930.16 336.81 906.58 336.81"/>
    <polygon points="351.26 595.53 370.38 595.53 676.67 595.53 698.07 595.53 722.22 595.53 545.73 197 504.17 197 327.68 595.53 351.26 595.53"/>
  </g>
  <g id="Intersects">
    <polygon class="cls-1" points="558.79 337.24 534.64 337.24 649.22 595.96 675.69 595.96 697.08 595.96 721.24 595.96 606.66 337.24 580.19 337.24 558.79 337.24"/>
    <path class="cls-1" d="M497.77,535.92c0-39.08-8.92-73.63-26.76-103.62-12.54-21.06-28.61-38.89-48.17-53.49l-96.12,217.05h163.05c5.32-18.63,7.99-38.6,7.99-59.94Z"/>
  </g>
</svg>